<?xml version="1.0" standalone="no"?><!DOCTYPE svg PUBLIC "-//W3C//DTD SVG 1.1//EN" "http://www.w3.org/Graphics/SVG/1.1/DTD/svg11.dtd"><svg t="1713874928858" class="icon" viewBox="0 0 1237 1024" version="1.1" xmlns="http://www.w3.org/2000/svg" p-id="14910" xmlns:xlink="http://www.w3.org/1999/xlink" width="241.6015625" height="200"><path d="M969.408 341.333333c17.941333 0 32.213333 3.989333 42.773333 11.925334 10.581333 7.914667 17.472 16.96 20.693334 27.114666l199.914666 574.08c7.68 24.106667 5.610667 41.728-6.250666 52.821334-11.84 11.093333-27.712 16.661333-47.573334 16.661333-19.861333 0.64-34.602667-3.626667-44.224-12.842667a93.205333 93.205333 0 0 1-22.101333-32.853333L1066.496 864h-195.136l-42.282667 109.482667c-5.76 15.232-13.781333 27.456-24.042666 36.650666-10.24 9.194667-25.301333 13.802667-45.162667 13.802667-19.882667 0-35.733333-5.397333-47.573333-16.192-11.882667-10.773333-13.312-29.184-4.352-55.210667l198.016-572.16c3.2-10.154667 10.112-19.2 20.693333-27.114666 10.56-7.936 24.810667-11.904 42.752-11.904zM480.64 0a53.397333 53.397333 0 0 1 53.397333 53.397333v52.373334h374.336a52.906667 52.906667 0 1 1 0 105.792h-149.546666c0 5.525333-0.896 11.136-2.752 16.64-47.061333 140.522667-110.72 261.973333-190.890667 364.117333 37.589333 48.149333 74.624 87.936 111.04 119.381333 22.250667 19.2 24.554667 52.586667 5.184 74.624a53.76 53.76 0 0 1-75.349333 5.12c-37.397333-32.298667-74.773333-71.552-112.149334-117.824-86.656 88.469333-188.778667 158.677333-306.218666 210.325334a53.610667 53.610667 0 0 1-70.485334-26.88 52.693333 52.693333 0 0 1 27.136-69.802667c110.186667-48.448 205.226667-115.050667 285.226667-200.128-46.293333-67.093333-92.650667-144.853333-139.221333-233.322667a52.650667 52.650667 0 0 1 22.677333-71.36 53.653333 53.653333 0 0 1 72.042667 22.464c38.848 73.813333 77.290667 139.413333 115.242666 196.778667 60.586667-82.944 110.122667-179.584 148.693334-290.133333H52.906667a52.906667 52.906667 0 1 1 0-105.792h374.314666V53.397333A53.397333 53.397333 0 0 1 480.64 0z m488.789333 520.32l-74.026666 236.096h148.053333L969.386667 520.32z" p-id="14911"></path></svg>